<?xml version="1.0" encoding="utf-8"?>
<!-- Generator: Adobe Illustrator 17.0.0, SVG Export Plug-In . SVG Version: 6.00 Build 0)  -->
<!DOCTYPE svg PUBLIC "-//W3C//DTD SVG 1.1//EN" "http://www.w3.org/Graphics/SVG/1.1/DTD/svg11.dtd">
<svg version="1.1" id="Layer_1" xmlns="http://www.w3.org/2000/svg" xmlns:xlink="http://www.w3.org/1999/xlink" x="0px" y="0px"
	 width="960px" height="960px" viewBox="0 0 960 960" enable-background="new 0 0 960 960" xml:space="preserve">
<polygon fill="#C8D2F1" points="319.831,439.71 326.397,433.148 326.165,432.923 "/>
<polygon fill="#C8D2F1" points="310.377,449.839 319.831,439.71 309.719,449.816 "/>
<polygon fill="#C8D2F1" points="431.607,442.509 374.336,385.238 523.489,236.49 507.017,157.629 218.824,449.106 309.719,449.816 
	319.831,439.71 326.165,432.923 326.397,433.148 401.248,505.751 486.378,501.907 471.533,487.061 558.008,400.586 540.944,331.69 
	"/>
<rect x="475.56" y="528.287" transform="matrix(0.7071 -0.7071 0.7071 0.7071 -253.801 525.1542)" fill="#C8D2F1" width="62.914" height="81.31"/>
<polygon fill="#63FFDA" points="579.838,547.887 556.098,571.627 556.807,572.335 506.329,622.813 480.18,648.962 454.651,674.491 
	391.586,611.427 488.171,515.157 397.56,515.954 346.04,567.632 268.961,490.553 303.99,455.545 213.096,454.834 166.779,501.151 
	452.262,784.725 534.102,702.885 534.102,702.885 610.729,626.258 627.703,609.284 668.864,568.122 "/>
</svg>
